# Blender 3.4.1
# www.blender.org
mtllib Random_Pieces_Of_Paper.mtl
o Paper_06_GEO
v 1.761777 0.003805 0.142649
v 1.974488 0.002371 0.130764
v 1.763988 0.000609 -0.085918
v 1.972772 0.001920 -0.137416
v 1.739391 0.004743 0.003326
v 1.989602 -0.000022 -0.003326
v 1.903167 0.070532 0.053968
v 1.801025 0.096481 -0.135997
v 1.806388 0.105015 0.003326
v 1.914182 0.044226 0.136706
v 1.906527 0.032046 -0.136706
v 1.907486 0.033571 -0.000000
v 1.863002 0.007906 0.136706
v 1.863190 0.004203 -0.136706
v 1.862911 0.000000 -0.000000
v 1.923333 0.045177 0.064644
v 1.927726 0.053707 0.086064
v 1.779681 0.016957 -0.060934
v 1.761777 0.003805 0.142649
v 1.974488 0.002371 0.130764
v 1.763988 0.000609 -0.085918
v 1.972772 0.001920 -0.137416
v 1.739391 0.004743 0.003326
v 1.989602 -0.000022 -0.003326
v 1.903167 0.070532 0.053968
v 1.801025 0.096481 -0.135997
v 1.806388 0.105015 0.003326
v 1.914182 0.044226 0.136706
v 1.906527 0.032046 -0.136706
v 1.907486 0.033571 -0.000000
v 1.863002 0.007906 0.136706
v 1.863190 0.004203 -0.136706
v 1.862911 0.000000 -0.000000
v 1.923333 0.045177 0.064644
v 1.927726 0.053707 0.086064
v 1.779681 0.016957 -0.060934
vn -0.0115 -0.9995 0.0309
vn -0.0018 -0.9997 0.0254
vn -0.0035 -0.9999 0.0130
vn -0.0099 -0.9999 0.0099
vn 0.4975 0.8662 -0.0468
vn 0.4298 0.9026 -0.0263
vn 0.3940 0.9188 -0.0245
vn 0.4727 0.8806 -0.0338
vn 0.5032 0.8628 -0.0495
vn 0.5573 0.8281 -0.0603
vn -0.0082 -0.9999 -0.0134
vn -0.0101 -0.9997 -0.0221
vn -0.0159 -0.9998 0.0070
vn 0.4665 0.8841 -0.0281
vn 0.5484 0.8351 -0.0430
vn -0.0054 -1.0000 -0.0009
vn -0.0219 -0.9991 0.0368
vn -0.7985 -0.4848 0.3568
vn -0.2128 -0.9390 -0.2702
vn -0.2457 0.8746 -0.4180
vn 0.0115 0.9995 -0.0309
vn 0.0099 0.9999 -0.0099
vn 0.0035 0.9999 -0.0130
vn 0.0018 0.9997 -0.0254
vn -0.4975 -0.8662 0.0468
vn -0.4727 -0.8806 0.0338
vn -0.3940 -0.9188 0.0245
vn -0.4298 -0.9026 0.0263
vn -0.5032 -0.8628 0.0495
vn -0.5573 -0.8281 0.0603
vn 0.0159 0.9998 -0.0070
vn 0.0101 0.9997 0.0221
vn 0.0082 0.9999 0.0134
vn -0.4665 -0.8841 0.0281
vn -0.5484 -0.8351 0.0430
vn 0.0054 1.0000 0.0009
vn 0.0219 0.9991 -0.0368
vn 0.7985 0.4848 -0.3568
vn 0.2128 0.9390 0.2702
vn 0.2457 -0.8746 0.4180
vt 0.461625 0.274598
vt 0.009569 0.022808
vt 0.464637 0.027254
vt 0.274691 0.261802
vt 0.957340 0.421272
vt 0.229813 0.020882
vt 0.245252 0.018080
vt 0.346508 0.294626
vt 0.119398 0.004325
vt 0.355851 0.004325
vt 0.638108 0.846522
vt 0.951512 0.087572
vt 0.230140 0.326525
vt 0.114740 0.339984
vt 0.995675 0.226929
vt 0.004325 0.146667
vt 0.995675 0.004325
vt 0.230140 0.127231
vt 0.118230 0.129907
vt 0.464637 0.157020
vt 0.238789 0.144802
vt 0.924555 0.303276
vt 0.351110 0.151078
vt 0.638108 0.913292
vt 0.614981 0.898035
vt 0.953460 0.031139
vt 0.908932 0.421272
vt 0.461625 0.274598
vt 0.009569 0.022808
vt 0.464637 0.027254
vt 0.274691 0.261802
vt 0.957340 0.421272
vt 0.229813 0.020882
vt 0.245252 0.018080
vt 0.346508 0.294626
vt 0.119398 0.004325
vt 0.355851 0.004325
vt 0.638108 0.846522
vt 0.951512 0.087572
vt 0.230140 0.326525
vt 0.114740 0.339984
vt 0.995675 0.226929
vt 0.004325 0.146667
vt 0.995675 0.004325
vt 0.230140 0.127231
vt 0.118230 0.129907
vt 0.464637 0.157020
vt 0.238789 0.144802
vt 0.924555 0.303276
vt 0.351110 0.151078
vt 0.638108 0.913292
vt 0.614981 0.898035
vt 0.953460 0.031139
vt 0.908932 0.421272
s 1
usemtl Paper6x
f 13/20/1 1/1/2 5/8/3 15/23/4
f 12/19/5 6/9/6 4/6/7 11/18/8
f 10/16/9 12/19/5 9/14/10
f 15/23/4 14/21/11 4/7/12 6/10/13
f 2/2/14 6/9/6 12/19/5 10/16/9
f 9/14/10 12/19/5 11/18/8 8/13/15
f 5/8/3 3/4/16 14/21/11 15/23/4
f 2/3/17 13/20/1 15/23/4 6/10/13
f 17/25/18 7/11/18 16/24/18
f 10/17/19 9/15/19 7/12/19 17/26/19
f 14/22/20 3/5/20 18/27/20
f 31/47/21 33/50/22 23/35/23 19/28/24
f 30/46/25 29/45/26 22/33/27 24/36/28
f 28/43/29 27/41/30 30/46/25
f 33/50/22 24/37/31 22/34/32 32/48/33
f 20/29/34 28/43/29 30/46/25 24/36/28
f 27/41/30 26/40/35 29/45/26 30/46/25
f 23/35/23 33/50/22 32/48/33 21/31/36
f 20/30/37 24/37/31 33/50/22 31/47/21
f 35/52/38 34/51/38 25/38/38
f 28/44/39 35/53/39 25/39/39 27/42/39
f 32/49/40 36/54/40 21/32/40
o Paper_05_GEO
v 1.464730 0.010503 0.161821
v 1.674730 0.010503 0.101089
v 1.464730 0.070426 0.108059
v 1.674730 0.082223 0.085597
v 1.464730 0.000000 -0.000000
v 1.674730 0.000000 -0.000000
v 1.569730 -0.000849 0.161821
v 1.569730 0.045003 0.104362
v 1.569730 0.002404 -0.007476
v 1.464730 0.010503 0.161821
v 1.674730 0.010503 0.101089
v 1.464730 0.070426 0.108059
v 1.674730 0.082223 0.085597
v 1.464730 0.000000 -0.000000
v 1.674730 0.000000 -0.000000
v 1.569730 -0.000849 0.161821
v 1.569730 0.045003 0.104362
v 1.569730 0.002404 -0.007476
vn 0.1665 -0.8334 0.5269
vn -0.0493 0.9984 -0.0268
vn -0.0730 -0.8870 0.4559
vn 0.0418 0.9989 -0.0219
vn -0.1665 0.8334 -0.5269
vn 0.0493 -0.9984 0.0268
vn 0.0730 0.8870 -0.4559
vn -0.0418 -0.9989 0.0219
vt 0.722963 0.780885
vt 0.856280 0.868484
vt 0.848022 0.578799
vt 0.004325 0.575787
vt 0.845245 0.772236
vt 0.725936 0.915790
vt 0.015579 0.788226
vt 0.858501 0.781869
vt 0.980363 0.919709
vt 0.847631 0.783413
vt 0.137861 0.649617
vt 0.722963 0.633627
vt 0.137445 0.788226
vt 0.980363 0.780885
vt 0.723379 0.772236
vt 0.847631 0.922237
vt 0.722963 0.780885
vt 0.856280 0.868484
vt 0.848022 0.578799
vt 0.004325 0.575787
vt 0.845245 0.772236
vt 0.725936 0.915790
vt 0.015579 0.788226
vt 0.858501 0.781869
vt 0.980363 0.919709
vt 0.847631 0.783413
vt 0.137861 0.649617
vt 0.722963 0.633627
vt 0.137445 0.788226
vt 0.980363 0.780885
vt 0.723379 0.772236
vt 0.847631 0.922237
s 1
usemtl Paper6x
f 45/67/41 42/61/41 40/58/41 44/65/41
f 38/56/42 42/62/42 45/68/42 43/63/42
f 41/59/43 45/69/43 44/66/43 39/57/43
f 37/55/44 43/64/44 45/70/44 41/60/44
f 54/83/45 53/81/45 49/74/45 51/77/45
f 47/72/46 52/79/46 54/84/46 51/78/46
f 50/75/47 48/73/47 53/82/47 54/85/47
f 46/71/48 50/76/48 54/86/48 52/80/48
o Paper_04_GEO
v 1.276163 0.033110 0.148889
v 1.177558 0.010286 0.266623
v 1.177558 0.000000 0.000000
v 1.177558 0.019881 0.132533
v 1.067848 0.032014 0.189827
v 0.967558 -0.000364 0.000000
v 0.967558 0.009715 0.139185
v 1.091171 0.015602 0.272565
v 1.091171 0.017388 0.000000
v 1.091171 0.003017 0.135859
v 1.098413 0.021276 0.200503
v 1.097594 0.030836 0.221923
v 1.363202 0.017850 0.000000
v 1.263945 0.024698 0.000000
v 1.367539 0.001708 0.067765
v 1.190540 0.015381 0.260887
v 1.177558 0.021411 -0.266623
v 1.387558 -0.000239 -0.139185
v 1.177558 0.019881 -0.132533
v 1.067848 0.032014 -0.189827
v 0.967558 0.009715 -0.139185
v 1.091171 0.015602 -0.272565
v 1.091171 0.003017 -0.135859
v 1.263945 0.004818 -0.272565
v 1.263945 0.003017 -0.135859
v 1.098413 0.021276 -0.200503
v 1.097594 0.030836 -0.221923
v 1.387558 0.003779 -0.278507
v 1.212777 0.053245 0.061750
v 1.276163 0.033110 0.148889
v 1.177558 0.010286 0.266623
v 1.177558 0.000000 0.000000
v 1.177558 0.019881 0.132533
v 1.067848 0.032014 0.189827
v 0.967558 -0.000364 0.000000
v 0.967558 0.009715 0.139185
v 1.091171 0.015602 0.272565
v 1.091171 0.017388 0.000000
v 1.091171 0.003017 0.135859
v 1.098413 0.021276 0.200503
v 1.097594 0.030836 0.221923
v 1.363202 0.017850 0.000000
v 1.263945 0.024698 0.000000
v 1.367539 0.001708 0.067765
v 1.190540 0.015381 0.260887
v 1.177558 0.021411 -0.266623
v 1.387558 -0.000239 -0.139185
v 1.177558 0.019881 -0.132533
v 1.067848 0.032014 -0.189827
v 0.967558 0.009715 -0.139185
v 1.091171 0.015602 -0.272565
v 1.091171 0.003017 -0.135859
v 1.263945 0.004818 -0.272565
v 1.263945 0.003017 -0.135859
v 1.098413 0.021276 -0.200503
v 1.097594 0.030836 -0.221923
v 1.387558 0.003779 -0.278507
v 1.212777 0.053245 0.061750
vn -0.0152 0.9995 -0.0265
vn -0.0317 0.9994 -0.0159
vn 0.0026 0.9998 -0.0205
vn -0.0210 0.9998 -0.0024
vn -0.0278 0.9989 -0.0379
vn -0.0103 0.9997 -0.0227
vn -0.0739 0.9972 -0.0139
vn -0.0048 0.9992 -0.0391
vn -0.1924 0.9772 -0.0899
vn -0.1813 0.9831 -0.0268
vn -0.0673 0.9977 -0.0110
vn -0.0445 0.9989 0.0156
vn 0.2046 0.9787 0.0193
vn -0.1666 0.9847 0.0514
vn -0.4181 -0.8354 0.3568
vn 0.3194 -0.9083 -0.2702
vn 0.1017 0.9947 0.0168
vn 0.0538 0.9981 -0.0291
vn 0.0296 0.9981 -0.0531
vn 0.0182 0.9996 0.0211
vn -0.0320 0.9988 0.0369
vn -0.0210 0.9998 0.0024
vn 0.0026 0.9998 0.0205
vn -0.0642 0.9973 0.0359
vn -0.0719 0.9953 0.0651
vn -0.0103 0.9997 0.0227
vn 0.0715 0.9974 0.0026
vn -0.0454 0.9989 -0.0067
vn -0.0009 0.9973 -0.0739
vn -0.1327 0.9898 0.0516
vn -0.0445 0.9989 -0.0156
vn 0.0428 0.9893 -0.1393
vn 0.1907 0.9816 0.0121
vn -0.4181 -0.8354 -0.3568
vn 0.3194 -0.9083 0.2702
vn -0.3163 -0.9486 0.0109
vn -0.1706 -0.9800 -0.1024
vn -0.1978 -0.9768 -0.0818
vn -0.0478 -0.9803 -0.1917
vn 0.0152 -0.9995 0.0265
vn 0.0210 -0.9998 0.0024
vn -0.0026 -0.9998 0.0205
vn 0.0317 -0.9994 0.0159
vn 0.0278 -0.9989 0.0379
vn 0.0103 -0.9997 0.0227
vn 0.0739 -0.9972 0.0139
vn 0.1813 -0.9831 0.0268
vn 0.1924 -0.9772 0.0899
vn 0.0048 -0.9992 0.0391
vn 0.0673 -0.9977 0.0110
vn 0.0445 -0.9989 -0.0156
vn -0.2046 -0.9787 -0.0193
vn 0.1666 -0.9847 -0.0514
vn 0.4181 0.8354 -0.3568
vn -0.3194 0.9083 0.2702
vn -0.1017 -0.9947 -0.0168
vn -0.0182 -0.9996 -0.0211
vn -0.0296 -0.9981 0.0531
vn -0.0538 -0.9981 0.0291
vn 0.0320 -0.9988 -0.0369
vn 0.0642 -0.9973 -0.0359
vn -0.0026 -0.9998 -0.0205
vn 0.0210 -0.9998 -0.0024
vn 0.0719 -0.9953 -0.0651
vn 0.0103 -0.9997 -0.0227
vn 0.0009 -0.9973 0.0739
vn 0.0454 -0.9989 0.0067
vn -0.0715 -0.9974 -0.0026
vn 0.1327 -0.9898 -0.0516
vn 0.0445 -0.9989 0.0156
vn -0.0428 -0.9893 0.1393
vn -0.1907 -0.9816 -0.0121
vn 0.4181 0.8354 0.3568
vn -0.3194 0.9083 -0.2702
vn 0.3163 0.9486 -0.0109
vn 0.1978 0.9768 0.0818
vn 0.1706 0.9800 0.1024
vn 0.0478 0.9803 0.1917
vt 0.573395 0.704288
vt 0.079853 0.482345
vt 0.477116 0.031227
vt 0.484651 0.837873
vt 0.707739 0.004325
vt 0.714314 0.829617
vt 0.715436 0.570150
vt 0.476002 0.303276
vt 0.589551 0.019396
vt 0.595712 0.821590
vt 0.381195 0.850378
vt 0.146510 0.634950
vt 0.707739 0.263565
vt 0.715436 0.307690
vt 0.590482 0.270667
vt 0.205030 0.756379
vt 0.473287 0.132921
vt 0.205030 0.575787
vt 0.704085 0.113178
vt 0.713853 0.460388
vt 0.588779 0.127185
vt 0.398065 0.891999
vt 0.368845 0.891999
vt 0.151148 0.591783
vt 0.714314 0.599137
vt 0.476002 0.538684
vt 0.697429 0.714035
vt 0.473553 0.420699
vt 0.649165 0.578799
vt 0.019774 0.348633
vt 0.489048 0.818287
vt 0.193522 0.567138
vt 0.485866 0.549204
vt 0.246903 0.322990
vt 0.353573 0.574885
vt 0.596629 0.552683
vt 0.358669 0.326059
vt 0.701963 0.846522
vt 0.856671 0.700228
vt 0.595875 0.303276
vt 0.915190 0.578799
vt 0.484651 0.447170
vt 0.915190 0.759391
vt 0.599504 0.445633
vt 0.241440 0.432881
vt 0.352405 0.432968
vt 0.685093 0.888143
vt 0.714314 0.888143
vt 0.861308 0.743395
vt 0.238789 0.576478
vt 0.004325 0.567138
vt 0.573395 0.704288
vt 0.079853 0.482345
vt 0.477116 0.031227
vt 0.484651 0.837873
vt 0.707739 0.004325
vt 0.714314 0.829617
vt 0.715436 0.570150
vt 0.476002 0.303276
vt 0.589551 0.019396
vt 0.595712 0.821590
vt 0.381195 0.850378
vt 0.146510 0.634950
vt 0.707739 0.263565
vt 0.715436 0.307690
vt 0.590482 0.270667
vt 0.205030 0.756379
vt 0.473287 0.132921
vt 0.205030 0.575787
vt 0.704085 0.113178
vt 0.713853 0.460388
vt 0.588779 0.127185
vt 0.398065 0.891999
vt 0.368845 0.891999
vt 0.151148 0.591783
vt 0.714314 0.599137
vt 0.476002 0.538684
vt 0.697429 0.714035
vt 0.473553 0.420699
vt 0.649165 0.578799
vt 0.019774 0.348633
vt 0.489048 0.818287
vt 0.193522 0.567138
vt 0.485866 0.549204
vt 0.246903 0.322990
vt 0.353573 0.574885
vt 0.596629 0.552683
vt 0.358669 0.326059
vt 0.701963 0.846522
vt 0.856671 0.700228
vt 0.595875 0.303276
vt 0.915190 0.578799
vt 0.484651 0.447170
vt 0.915190 0.759391
vt 0.599504 0.445633
vt 0.241440 0.432881
vt 0.352405 0.432968
vt 0.685093 0.888143
vt 0.714314 0.888143
vt 0.861308 0.743395
vt 0.238789 0.576478
vt 0.004325 0.567138
s 1
usemtl Paper6x
f 64/107/49 58/95/50 57/91/51 63/105/52
f 62/103/53 64/107/49 61/101/54
f 55/87/55 68/113/56 57/92/57 58/96/58
f 56/89/59 58/95/50 64/107/49 62/103/53
f 61/101/54 64/107/49 63/105/52 60/99/60
f 69/115/61 67/111/61 68/113/56 55/87/55
f 56/90/62 70/117/62 55/87/55 58/96/58
f 66/109/63 59/97/63 65/108/63
f 62/104/64 61/102/64 59/98/64 66/110/64
f 78/131/65 79/132/66 72/121/67 82/136/68
f 77/130/69 63/106/70 57/93/71 73/122/72
f 76/128/73 75/126/74 77/130/69
f 79/132/66 73/123/75 57/94/76 68/114/77
f 71/119/78 76/128/73 77/130/69 73/122/72
f 75/126/74 60/100/79 63/106/70 77/130/69
f 72/121/67 79/132/66 68/114/77 67/112/80
f 71/120/81 73/123/75 79/132/66 78/131/65
f 81/134/82 80/133/82 74/124/82
f 76/129/83 81/135/83 74/125/83 75/127/83
f 69/116/84 55/88/85 83/137/86
f 55/88/85 70/118/87 83/137/86
f 93/158/88 92/156/89 86/142/90 87/146/91
f 91/154/92 90/152/93 93/158/88
f 84/138/94 87/147/95 86/143/96 97/164/97
f 85/140/98 91/154/92 93/158/88 87/146/91
f 90/152/93 89/150/99 92/156/89 93/158/88
f 98/166/100 84/138/94 97/164/97 96/162/100
f 85/141/101 87/147/95 84/138/94 99/168/101
f 95/160/102 94/159/102 88/148/102
f 91/155/103 95/161/103 88/149/103 90/153/103
f 107/182/104 111/187/105 101/172/106 108/183/107
f 106/181/108 102/173/109 86/144/110 92/157/111
f 105/179/112 106/181/108 104/177/113
f 108/183/107 97/165/114 86/145/115 102/174/116
f 100/170/117 102/173/109 106/181/108 105/179/112
f 104/177/113 106/181/108 92/157/111 89/151/118
f 101/172/106 96/163/119 97/165/114 108/183/107
f 100/171/120 107/182/104 108/183/107 102/174/116
f 110/185/121 103/175/121 109/184/121
f 105/180/122 104/178/122 103/176/122 110/186/122
f 98/167/123 112/188/124 84/139/125
f 84/139/125 112/188/124 99/169/126
o Paper_03_GEO
v 0.899826 0.014162 0.060955
v 0.701976 0.010755 -0.067407
v 0.911976 0.010755 -0.064704
v 0.859476 0.014162 0.080538
v 0.754476 0.014162 0.054287
v 0.859476 0.010755 -0.061228
v 0.806976 -0.001704 -0.067407
v 0.754476 0.010755 -0.061614
v 0.806976 0.001704 0.067407
v 0.722651 0.021709 0.017837
v 0.701976 0.014162 0.021277
v 0.786301 0.009088 0.057110
v 0.754476 0.014967 0.041327
v 0.899826 0.014162 0.060955
v 0.701976 0.010755 -0.067407
v 0.911976 0.010755 -0.064704
v 0.859476 0.014162 0.080538
v 0.754476 0.014162 0.054287
v 0.859476 0.010755 -0.061228
v 0.806976 -0.001704 -0.067407
v 0.754476 0.010755 -0.061614
v 0.806976 0.001704 0.067407
v 0.722651 0.021709 0.017837
v 0.701976 0.014162 0.021277
v 0.786301 0.009088 0.057110
v 0.754476 0.014967 0.041327
vn -0.1266 0.9916 -0.0250
vn -0.0064 0.9996 -0.0258
vn -0.1190 0.9926 -0.0250
vn 0.0123 0.9994 -0.0333
vn 0.1544 0.9876 -0.0291
vn 0.1233 0.9919 -0.0300
vn 0.2326 0.9722 -0.0264
vn -0.2266 0.9737 -0.0240
vn -0.0394 -0.9661 -0.2553
vn 0.1333 -0.9410 -0.3111
vn 0.0443 -0.9580 -0.2835
vn -0.1345 -0.9661 -0.2206
vn 0.1266 -0.9916 0.0250
vn 0.1190 -0.9926 0.0250
vn 0.0064 -0.9996 0.0258
vn -0.0123 -0.9994 0.0333
vn -0.1233 -0.9919 0.0300
vn -0.1544 -0.9876 0.0291
vn -0.2326 -0.9722 0.0264
vn 0.2266 -0.9737 0.0240
vn 0.0394 0.9661 0.2553
vn -0.0443 0.9580 0.2835
vn -0.1333 0.9410 0.3111
vn 0.1345 0.9661 0.2206
vt 0.741658 0.444746
vt 0.855864 0.434662
vt 0.845286 0.434214
vt 0.724086 0.490906
vt 0.956194 0.494897
vt 0.223425 0.417443
vt 0.840374 0.494867
vt 0.853935 0.563202
vt 0.845286 0.562857
vt 0.860948 0.495419
vt 0.964615 0.563202
vt 0.734676 0.558910
vt 0.224735 0.348633
vt 0.202171 0.463663
vt 0.928940 0.434214
vt 0.224735 0.483952
vt 0.217587 0.378938
vt 0.213017 0.420291
vt 0.741658 0.444746
vt 0.855864 0.434662
vt 0.845286 0.434214
vt 0.724086 0.490906
vt 0.956194 0.494897
vt 0.223425 0.417443
vt 0.840374 0.494867
vt 0.853935 0.563202
vt 0.845286 0.562857
vt 0.860948 0.495419
vt 0.964615 0.563202
vt 0.734676 0.558910
vt 0.224735 0.348633
vt 0.202171 0.463663
vt 0.928940 0.434214
vt 0.224735 0.483952
vt 0.217587 0.378938
vt 0.213017 0.420291
s 1
usemtl Paper6x
f 116/192/127 113/189/128 115/191/128 118/195/129
f 123/203/130 117/193/131 120/198/132 114/190/130
f 117/193/131 121/199/133 119/196/133 120/198/132
f 121/200/134 116/192/127 118/195/129 119/197/134
f 117/194/135 123/204/136 122/202/136 125/206/137
f 121/201/138 117/194/135 125/206/137 124/205/138
f 129/210/139 131/213/140 128/209/141 126/207/141
f 136/221/142 127/208/142 133/216/143 130/211/144
f 130/211/144 133/216/143 132/214/145 134/217/145
f 134/218/146 132/215/146 131/213/140 129/210/139
f 130/212/147 138/224/148 135/220/149 136/222/149
f 134/219/150 137/223/150 138/224/148 130/212/147
o Paper_02_GEO
v 0.609737 0.003219 0.209993
v 0.399737 0.020851 0.198108
v 0.585380 0.022401 -0.018573
v 0.399737 0.017791 -0.070072
v 0.609737 -0.000187 0.070670
v 0.399737 0.019321 0.064018
v 0.290027 0.031454 0.121312
v 0.189737 -0.000924 -0.068652
v 0.189737 0.009155 0.070670
v 0.313350 0.015041 0.204050
v 0.313350 0.000656 -0.069362
v 0.313350 0.002457 0.067344
v 0.486124 0.004258 0.204050
v 0.486124 0.007966 -0.069362
v 0.486124 0.000455 0.067344
v 0.320592 0.020716 0.131988
v 0.319773 0.030276 0.153408
v 0.568878 0.019805 -0.013752
v 0.609737 0.003219 0.209993
v 0.399737 0.020851 0.198108
v 0.585380 0.022401 -0.018573
v 0.399737 0.017791 -0.070072
v 0.609737 -0.000187 0.070670
v 0.399737 0.019321 0.064018
v 0.290027 0.031454 0.121312
v 0.189737 -0.000924 -0.068652
v 0.189737 0.009155 0.070670
v 0.313350 0.015041 0.204050
v 0.313350 0.000656 -0.069362
v 0.313350 0.002457 0.067344
v 0.486124 0.004258 0.204050
v 0.486124 0.007966 -0.069362
v 0.486124 0.000455 0.067344
v 0.320592 0.020716 0.131988
v 0.319773 0.030276 0.153408
v 0.568878 0.019805 -0.013752
vn 0.1020 0.9945 -0.0229
vn 0.0078 0.9996 -0.0261
vn -0.0384 0.9981 0.0489
vn 0.0696 0.9971 0.0303
vn -0.0637 0.9967 -0.0498
vn -0.1638 0.9860 -0.0314
vn -0.1933 0.9811 -0.0121
vn -0.0876 0.9958 -0.0276
vn -0.0719 0.9953 -0.0651
vn 0.0312 0.9977 -0.0603
vn 0.0573 0.9958 0.0718
vn 0.1633 0.9863 0.0218
vn 0.1823 0.9832 0.0017
vn -0.1327 0.9898 -0.0516
vn 0.0200 0.9989 -0.0430
vn -0.0953 0.9853 0.1415
vn 0.2020 0.9792 -0.0193
vn -0.4181 -0.8354 0.3568
vn 0.3194 -0.9083 -0.2702
vn 0.1512 -0.9884 -0.0146
vn -0.1020 -0.9945 0.0229
vn -0.0696 -0.9971 -0.0303
vn 0.0384 -0.9981 -0.0489
vn -0.0078 -0.9996 0.0261
vn 0.0637 -0.9967 0.0498
vn 0.0876 -0.9958 0.0276
vn 0.1933 -0.9811 0.0121
vn 0.1638 -0.9860 0.0314
vn 0.0719 -0.9953 0.0651
vn -0.0312 -0.9977 0.0603
vn -0.1823 -0.9832 -0.0017
vn -0.1633 -0.9863 -0.0218
vn -0.0573 -0.9958 -0.0718
vn 0.1327 -0.9898 0.0516
vn -0.0200 -0.9989 0.0430
vn 0.0953 -0.9853 -0.1415
vn -0.2020 -0.9792 0.0193
vn 0.4181 0.8354 -0.3568
vn -0.3194 0.9083 0.2702
vn -0.1512 0.9884 0.0146
vt 0.468508 0.841729
vt 0.938214 0.258106
vt 0.462064 0.590384
vt 0.262581 0.813041
vt 0.224735 0.619799
vt 0.717500 0.258106
vt 0.242281 0.585127
vt 0.354120 0.841729
vt 0.827763 0.257838
vt 0.352098 0.588603
vt 0.673838 0.846522
vt 0.923840 0.637962
vt 0.720715 0.004325
vt 0.839232 0.007552
vt 0.982359 0.759391
vt 0.942863 0.156508
vt 0.982359 0.578799
vt 0.716389 0.149264
vt 0.827628 0.150274
vt 0.463840 0.698544
vt 0.238789 0.687962
vt 0.224735 0.492602
vt 0.351608 0.698690
vt 0.673838 0.891432
vt 0.646758 0.880456
vt 0.928477 0.594795
vt 0.214416 0.602069
vt 0.468508 0.841729
vt 0.938214 0.258106
vt 0.462064 0.590384
vt 0.262581 0.813041
vt 0.224735 0.619799
vt 0.717500 0.258106
vt 0.242281 0.585127
vt 0.354120 0.841729
vt 0.827763 0.257838
vt 0.352098 0.588603
vt 0.673838 0.846522
vt 0.923840 0.637962
vt 0.720715 0.004325
vt 0.839232 0.007552
vt 0.982359 0.759391
vt 0.942863 0.156508
vt 0.982359 0.578799
vt 0.716389 0.149264
vt 0.827628 0.150274
vt 0.463840 0.698544
vt 0.238789 0.687962
vt 0.224735 0.492602
vt 0.351608 0.698690
vt 0.673838 0.891432
vt 0.646758 0.880456
vt 0.928477 0.594795
vt 0.214416 0.602069
s 1
usemtl Paper6x
f 151/244/151 139/225/152 143/232/153 153/247/154
f 150/243/155 144/233/156 142/230/157 149/242/158
f 148/240/159 150/243/155 147/238/160
f 153/247/154 152/245/161 142/231/162 144/234/163
f 140/226/164 144/233/156 150/243/155 148/240/159
f 147/238/160 150/243/155 149/242/158 146/237/165
f 143/232/153 141/228/166 152/245/161 153/247/154
f 140/227/167 151/244/151 153/247/154 144/234/163
f 155/249/168 145/235/168 154/248/168
f 148/241/169 147/239/169 145/236/169 155/250/169
f 152/246/170 141/229/170 156/251/170
f 169/271/171 171/274/172 161/259/173 157/252/174
f 168/270/175 167/269/176 160/257/177 162/260/178
f 166/267/179 165/265/180 168/270/175
f 171/274/172 162/261/181 160/258/182 170/272/183
f 158/253/184 166/267/179 168/270/175 162/260/178
f 165/265/180 164/264/185 167/269/176 168/270/175
f 161/259/173 171/274/172 170/272/183 159/255/186
f 158/254/187 162/261/181 171/274/172 169/271/171
f 173/276/188 172/275/188 163/262/188
f 166/268/189 173/277/189 163/263/189 165/266/189
f 170/273/190 174/278/190 159/256/190
o Paper_01_GEO
v -0.105000 0.011261 0.148300
v 0.105000 0.011261 0.087568
v -0.105000 0.076019 -0.141022
v 0.105000 0.051024 -0.145377
v -0.105000 0.007853 -0.000000
v 0.105000 0.007853 -0.000000
v 0.000000 -0.000092 0.148300
v 0.000000 0.052195 -0.148538
v 0.000000 0.000000 -0.000000
v -0.105000 0.011261 0.148300
v 0.105000 0.011261 0.087568
v -0.105000 0.076019 -0.141022
v 0.105000 0.051024 -0.145377
v -0.105000 0.007853 -0.000000
v 0.105000 0.007853 -0.000000
v 0.000000 -0.000092 0.148300
v 0.000000 0.052195 -0.148538
v 0.000000 0.000000 -0.000000
vn -0.0349 0.9506 0.3084
vn -0.0951 0.9954 -0.0140
vn 0.1513 0.9128 0.3794
vn 0.0911 0.9958 -0.0111
vn 0.0349 -0.9506 -0.3084
vn 0.0951 -0.9954 0.0140
vn -0.1513 -0.9128 -0.3794
vn -0.0911 -0.9958 0.0111
vt 0.606332 0.846522
vt 0.288037 0.850378
vt 0.220733 0.925668
vt 0.727382 0.424863
vt 0.018207 0.919165
vt 0.484651 0.848141
vt 0.886399 0.425565
vt 0.360195 0.851676
vt 0.238789 0.975259
vt 0.606094 0.971216
vt 0.724086 0.303276
vt 0.180521 0.796875
vt 0.900282 0.303276
vt 0.360195 0.974751
vt 0.004325 0.796875
vt 0.484686 0.971216
vt 0.606332 0.846522
vt 0.288037 0.850378
vt 0.220733 0.925668
vt 0.727382 0.424863
vt 0.018207 0.919165
vt 0.484651 0.848141
vt 0.886399 0.425565
vt 0.360195 0.851676
vt 0.238789 0.975259
vt 0.606094 0.971216
vt 0.724086 0.303276
vt 0.180521 0.796875
vt 0.900282 0.303276
vt 0.360195 0.974751
vt 0.004325 0.796875
vt 0.484686 0.971216
s 1
usemtl Paper6x
f 183/291/191 180/285/191 178/282/191 182/289/191
f 176/280/192 180/286/192 183/292/192 181/287/192
f 179/283/193 183/293/193 182/290/193 177/281/193
f 175/279/194 181/288/194 183/294/194 179/284/194
f 192/307/195 191/305/195 187/298/195 189/301/195
f 185/296/196 190/303/196 192/308/196 189/302/196
f 188/299/197 186/297/197 191/306/197 192/309/197
f 184/295/198 188/300/198 192/310/198 190/304/198
